<svg xmlns="http://www.w3.org/2000/svg" viewBox="0 0 512 512">
  <rect width="512" height="512" rx="80" fill="#0a3358"/>
  <!-- Lake waves -->
  <path d="M64 320 Q128 290 192 320 Q256 350 320 320 Q384 290 448 320 L448 420 Q384 390 320 420 Q256 450 192 420 Q128 390 64 420 Z" fill="#38aef4" opacity="0.7"/>
  <path d="M64 360 Q128 330 192 360 Q256 390 320 360 Q384 330 448 360 L448 460 Q384 430 320 460 Q256 490 192 460 Q128 430 64 460 Z" fill="#0273bc" opacity="0.8"/>
  <!-- Fish silhouette -->
  <ellipse cx="256" cy="220" rx="90" ry="40" fill="#7ec8f8"/>
  <path d="M346 220 L390 190 L390 250 Z" fill="#7ec8f8"/>
  <circle cx="220" cy="210" r="8" fill="#0a3358"/>
</svg>
